<svg xmlns="http://www.w3.org/2000/svg" viewBox="0 0 512 512">
  <defs>
    <linearGradient id="bg192" x1="0%" y1="0%" x2="100%" y2="100%">
      <stop offset="0%" stop-color="#141e1a"/>
      <stop offset="100%" stop-color="#0a0d10"/>
    </linearGradient>
    <linearGradient id="green192" x1="0%" y1="0%" x2="0%" y2="100%">
      <stop offset="0%" stop-color="#35f0aa"/>
      <stop offset="100%" stop-color="#1ab87a"/>
    </linearGradient>
    <filter id="glow192" x="-40%" y="-40%" width="180%" height="180%">
      <feGaussianBlur in="SourceGraphic" stdDeviation="10" result="blur"/>
      <feMerge><feMergeNode in="blur"/><feMergeNode in="SourceGraphic"/></feMerge>
    </filter>
  </defs>

  <rect width="512" height="512" rx="112" fill="url(#bg192)"/>

  <line x1="56" y1="320" x2="456" y2="320" stroke="rgba(255,255,255,0.04)" stroke-width="1"/>
  <line x1="56" y1="240" x2="456" y2="240" stroke="rgba(255,255,255,0.04)" stroke-width="1"/>
  <line x1="56" y1="160" x2="456" y2="160" stroke="rgba(255,255,255,0.04)" stroke-width="1"/>
  <line x1="56" y1="400" x2="456" y2="400" stroke="rgba(255,255,255,0.10)" stroke-width="2"/>

  <rect x="60" y="330" width="68" height="70" rx="9" fill="url(#green192)" opacity="0.7"/>
  <line x1="94" y1="310" x2="94" y2="330" stroke="#2dd698" stroke-width="4" stroke-linecap="round" opacity="0.7"/>
  <line x1="94" y1="400" x2="94" y2="415" stroke="#2dd698" stroke-width="4" stroke-linecap="round" opacity="0.7"/>

  <rect x="156" y="350" width="68" height="50" rx="9" fill="#f75252" opacity="0.8"/>
  <line x1="190" y1="330" x2="190" y2="350" stroke="#f75252" stroke-width="4" stroke-linecap="round" opacity="0.8"/>
  <line x1="190" y1="400" x2="190" y2="418" stroke="#f75252" stroke-width="4" stroke-linecap="round" opacity="0.8"/>

  <rect x="252" y="270" width="68" height="130" rx="9" fill="url(#green192)" opacity="0.85"/>
  <line x1="286" y1="248" x2="286" y2="270" stroke="#2dd698" stroke-width="4" stroke-linecap="round" opacity="0.85"/>
  <line x1="286" y1="400" x2="286" y2="420" stroke="#2dd698" stroke-width="4" stroke-linecap="round" opacity="0.85"/>

  <rect x="348" y="168" width="68" height="232" rx="9" fill="url(#green192)" filter="url(#glow192)"/>
  <line x1="382" y1="140" x2="382" y2="168" stroke="#35f0aa" stroke-width="5" stroke-linecap="round"/>
  <line x1="382" y1="400" x2="382" y2="422" stroke="#35f0aa" stroke-width="5" stroke-linecap="round"/>

  <polyline points="94,330 190,350 286,270 382,168"
    fill="none" stroke="#2dd698" stroke-width="5"
    stroke-linecap="round" stroke-linejoin="round"
    stroke-dasharray="14,8" opacity="0.55"/>

  <polygon points="382,88 410,136 396,130 396,155 368,155 368,130 354,136"
    fill="#2dd698" filter="url(#glow192)"/>
</svg>
